{"title":"Enemy of the State 1998 BRRip H264 AAC-Rx(Phoenix-RG)","uid":5785123,"size":2338438398,"categoryP":"video","categoryS":"hd___movies","magnet":"?xt=urn:btih:23be1f9a032635f0959614a1c8b2a4addb2d9945&amp;dn=Enemy+of+the+State+1998+BRRip+H264+AAC-Rx%28Phoenix-RG%29&amp;tr=udp%3A%2F%2Ftracker.openbittorrent.com%3A80&amp;tr=udp%3A%2F%2Fopen.demonii.com%3A1337&amp;tr=udp%3A%2F%2Ftracker.coppersurfer.tk%3A6969&amp;tr=udp%3A%2F%2Fexodus.desync.com%3A6969","seeders":0,"leechers":1,"uploader":"rev-x","files":9,"time":1282580564,"description":" Enemy of the State 1998 BRRip H264 AAC-Rx(Phoenix-RG).mp4\n      Format : MPEG-4 /AVC\n      File size : 2.18 GiB\n      Duration : 2h 12mn\n      Encoding : 2 Pass\n      Format profile : &lt;a class=&quot;__cf_email__&quot; href=&quot;/cdn-cgi/l/email-protection&quot; data-cfemail=&quot;125a7b757a525e263c23&quot;&gt;[email&amp;#160;protected]&lt;/a&gt;&lt;script data-cfhash='f9e31' type=&quot;text/javascript&quot;&gt;\n/* &lt;![CDATA[ */!function(){try{var t=&quot;currentScript&quot;in document?document.currentScript:function(){for(var t=document.getElementsByTagName(&quot;script&quot;),e=t.length;e--;)if(t[e].getAttribute(&quot;data-cfhash&quot;))return t[e]}();if(t&amp;&amp;t.previousSibling){var e,r,n,i,c=t.previousSibling,a=c.getAttribute(&quot;data-cfemail&quot;);if(a){for(e=&quot;&quot;,r=parseInt(a.substr(0,2),16),n=2;a.length-n;n+=2)i=parseInt(a.substr(n,2),16)^r,e+=String.fromCharCode(i);e=document.createTextNode(e),c.parentNode.replaceChild(e,c)}t.parentNode.removeChild(t);}}catch(u){}}()/* ]]&gt; */&lt;/script&gt;\n      Bit rate : 2 030 Kbps\n      Width : 1 280 pixels\n      Height : 560 pixels\n      Display aspect ratio : 2.25\n      Frame rate : 23.976 fps\n      Resolution : 24 bits\n      Colorimetry : 4:2:0\n      Scan type : Progressive\n      Bits/(Pixel*Frame) : 0.118\n      Stream size : 1.87 GiB (86%)\n      \n      \n   Audio #2\n      Format : AAC / LC\n      Format/Info : Advanced Audio Codec\n      Duration : 2h 12mn\n      Bit rate : 323 Kbps\n      Channel(s) : 6 channels\n      Channel positions : Front: L C R, Rear: L R, LFE\n      Sampling rate : 48.0 KHz\n      Resolution : 16 bits\n      Stream size : 306 MiB (14%)\n\n\nSCREEN:\n &lt;a href=&quot;\nhttp://img714.imageshack.us/img714/4276/vlcsnap98026.jpg&quot; rel=&quot;nofollow&quot; target=&quot;_NEW&quot;&gt;\nhttp://img714.imageshack.us/img714/4276/vlcsnap98026.jpg&lt;/a&gt;\n &lt;a href=&quot;\nhttp://img714.imageshack.us/img714/2918/vlcsnap98146.jpg&quot; rel=&quot;nofollow&quot; target=&quot;_NEW&quot;&gt;\nhttp://img714.imageshack.us/img714/2918/vlcsnap98146.jpg&lt;/a&gt;\n &lt;a href=&quot;\nhttp://img691.imageshack.us/img691/8868/vlcsnap95813.jpg&quot; rel=&quot;nofollow&quot; target=&quot;_NEW&quot;&gt;\nhttp://img691.imageshack.us/img691/8868/vlcsnap95813.jpg&lt;/a&gt;","torrent":{"xt":"urn:btih:23be1f9a032635f0959614a1c8b2a4addb2d9945","amp;dn":"Enemy+of+the+State+1998+BRRip+H264+AAC-Rx%28Phoenix-RG%29","amp;tr":["udp%3A%2F%2Ftracker.openbittorrent.com%3A80","udp%3A%2F%2Fopen.demonii.com%3A1337","udp%3A%2F%2Ftracker.coppersurfer.tk%3A6969","udp%3A%2F%2Fexodus.desync.com%3A6969"],"infoHash":"23be1f9a032635f0959614a1c8b2a4addb2d9945","infoHashBuffer":{"type":"Buffer","data":[35,190,31,154,3,38,53,240,149,150,20,161,200,178,164,173,219,45,153,69]},"announce":[],"urlList":[]}}